<?xml version="1.0" encoding="UTF-8"?><svg id="Calque_1" xmlns="http://www.w3.org/2000/svg" viewBox="0 0 841.89 595.28"><defs><style>.cls-1{stroke-miterlimit:10;}.cls-1,.cls-2{stroke:#61685e;}.cls-1,.cls-2,.cls-3{fill:none;stroke-linecap:round;stroke-width:6.22px;}.cls-2,.cls-3{stroke-linejoin:round;}.cls-3{stroke:#50a662;}.cls-4{fill:#61685e;}.cls-5{fill:#50a662;}</style></defs><g><path class="cls-4" d="M329.32,418.74l3.27,2.18-.19,11.81,10.83-4.72,3.27,2.18-11.64,17.48-3.07-2.05,8.35-12.54-11.01,4.57-.1-.07v-11.83l-8.33,12.49-3.02-2.01,11.64-17.48Z"/><path class="cls-4" d="M347.45,442.58l.02-.06c2.12-5.52,8.16-8.5,14.18-6.18,6.02,2.32,8.47,8.5,6.34,14.01l-.02,.06c-2.12,5.52-8.16,8.5-14.18,6.18-6.02-2.32-8.47-8.5-6.34-14.01Zm16.89,6.5l.02-.06c1.46-3.81-.09-8.04-3.98-9.54-3.89-1.5-7.8,.57-9.27,4.37l-.02,.06c-1.46,3.81,.1,8.01,3.99,9.51,3.89,1.5,7.79-.54,9.26-4.35Z"/><path class="cls-4" d="M377.13,441.76l9.24,1.51c2.61,.42,4.52,1.53,5.64,3.05,.91,1.3,1.28,2.95,.99,4.75v.06c-.56,3.41-2.94,5.12-5.95,5.48l4.32,8.76-4.32-.71-3.92-8.06-4.56-.74-1.18,7.22-3.64-.59,3.38-20.73Zm7.3,11.74c2.61,.42,4.49-.67,4.83-2.77v-.06c.37-2.22-1.03-3.7-3.72-4.14l-5.3-.86-1.14,6.96,5.33,.87Z"/><path class="cls-4" d="M399.17,455.45v-.06c-.19-5.91,4.21-11,10.65-11.21,6.45-.21,11.1,4.54,11.29,10.44v.06c.19,5.91-4.21,11-10.65,11.21-6.45,.21-11.1-4.54-11.29-10.44Zm18.08-.58v-.06c-.13-4.08-3.21-7.37-7.38-7.24-4.17,.13-6.97,3.56-6.84,7.63v.06c.13,4.08,3.21,7.34,7.38,7.21s6.97-3.53,6.84-7.6Z"/><path class="cls-4" d="M427.77,453.53v-.06c-1.46-5.79,1.69-11.62,7.86-13.16,3.75-.94,6.35-.2,8.77,1.18l-1.64,3.22c-2.01-1.11-4.01-1.69-6.34-1.11-3.87,.97-5.92,4.88-4.92,8.87v.06c1.01,3.99,4.64,6.51,8.54,5.54,2.5-.63,3.86-2.01,5.19-4.08l2.88,1.75c-1.57,2.74-3.55,4.72-7.36,5.68-5.94,1.48-11.52-2.04-12.98-7.89Z"/><path class="cls-4" d="M451.62,446.96l-.03-.05c-2.51-5.41-.52-11.73,5.25-14.41,3.51-1.63,6.2-1.39,8.83-.5l-1,3.47c-2.18-.71-4.26-.9-6.43,.11-3.62,1.68-4.9,5.91-3.16,9.64l.03,.05c1.73,3.73,5.77,5.52,9.42,3.83,2.34-1.09,3.41-2.71,4.33-4.99l3.16,1.18c-1.03,2.99-2.6,5.31-6.16,6.96-5.55,2.58-11.7,.17-14.24-5.29Z"/><path class="cls-4" d="M473.88,436.12l-.04-.05c-3.51-4.75-2.78-11.44,2.4-15.28,5.19-3.83,11.71-2.57,15.22,2.18l.04,.05c3.51,4.75,2.78,11.44-2.4,15.28-5.19,3.83-11.71,2.57-15.22-2.18Zm14.55-10.75l-.04-.05c-2.42-3.28-6.83-4.24-10.18-1.77-3.35,2.48-3.72,6.88-1.29,10.17l.04,.05c2.42,3.28,6.81,4.22,10.16,1.74,3.36-2.48,3.74-6.86,1.31-10.14Z"/></g><g><path class="cls-5" d="M404.77,275.55c3.65,0,6.63,2.97,6.63,6.63v30.65c0,3.65-2.97,6.63-6.63,6.63s-6.63-2.97-6.63-6.63v-30.65c0-3.65,2.97-6.63,6.63-6.63m0-6.22c-7.07,0-12.85,5.78-12.85,12.85v30.65c0,7.07,5.78,12.85,12.85,12.85s12.85-5.78,12.85-12.85v-30.65c0-7.07-5.78-12.85-12.85-12.85h0Z"/><path class="cls-3" d="M404.76,382.42c.16-16.56-8.66-35.52-23.36-45.67-18.61-12.85-23.71-.64-40.01-18.32h0c-.01,1.2,.01,2.4,.07,3.61,1.65,34.96,31.33,61.96,66.29,60.31,34.17-1.61,60.73-30,60.38-63.92h0c-16.3,17.68-21.4,5.47-40.01,18.32-14.7,10.15-23.52,29.11-23.36,45.67"/></g><g><g><path class="cls-2" d="M539.92,236.75c8.76-1.78,11.9-16.57,1.97-21.04-9.81-4.42-21.76,4.34-16.88,24.34,6.44,26.43-15.06,38.01-26.57,29.38-13.94-10.44-5.36-27.16,5.93-28.59"/><g><path class="cls-2" d="M263.74,240.41c-8.31-21.66,7.58-44.22,28.44-36.17,7.48,2.89,16.27,13.95,15.79,27.85-.39,11.3-9.37,17.87-13.74,18.42"/><line class="cls-2" x1="276.95" y1="225.53" x2="309.91" y2="273.17"/><line class="cls-2" x1="306.15" y1="240.2" x2="332.01" y2="249.47"/></g><ellipse class="cls-2" cx="340.14" cy="204.7" rx="15.65" ry="26.87" transform="translate(-29.79 60.65) rotate(-9.76)"/><ellipse class="cls-2" cx="486.29" cy="207.85" rx="26.87" ry="15.65" transform="translate(-16.5 371.83) rotate(-41.21)"/><g><polyline class="cls-2" points="373.8 165.4 402.91 160.75 372.94 218.13 400.62 213.65"/><line class="cls-2" x1="372.93" y1="218.1" x2="402.04" y2="213.45"/></g><g><polyline class="cls-2" points="432.17 163.25 461.49 166.33 417.63 213.94 445.52 216.82"/><line class="cls-2" x1="418.44" y1="213.93" x2="447.76" y2="217"/></g></g><path class="cls-1" d="M560.5,274.99c5.57,17.77,8.17,36.81,7.24,56.5-4.25,90.01-80.67,159.52-170.67,155.27-90.01-4.25-159.52-80.67-155.27-170.67,.66-13.93,3.04-27.36,6.94-40.11"/><path class="cls-1" d="M295.15,391.74c-13.22-21.62-20.32-47.3-19.04-74.52,.3-6.31,1.04-12.49,2.18-18.51"/><path class="cls-1" d="M532.43,298.7c2.21,10.63,3.13,21.7,2.6,33.04-1.06,22.39-7.67,43.2-18.43,61.16"/></g></svg>