<?xml version="1.0" standalone="no"?>
<!DOCTYPE svg PUBLIC "-//W3C//DTD SVG 20010904//EN"
 "http://www.w3.org/TR/2001/REC-SVG-20010904/DTD/svg10.dtd">
<svg version="1.0" xmlns="http://www.w3.org/2000/svg"
 width="1480.000000pt" height="1480.000000pt" viewBox="0 0 1480.000000 1480.000000"
 preserveAspectRatio="xMidYMid meet">
<metadata>
Created by potrace 1.14, written by Peter Selinger 2001-2017
</metadata>
<g transform="translate(0.000000,1480.000000) scale(0.100000,-0.100000)"
fill="#000000" stroke="none">
<path d="M7110 14238 c-91 -15 -181 -30 -200 -32 -19 -3 -44 -7 -55 -9 -11 -3
-41 -7 -66 -11 -25 -4 -57 -9 -70 -11 -13 -2 -69 -11 -124 -20 -55 -9 -113
-18 -129 -21 -28 -5 -320 -51 -362 -58 -116 -17 -147 -175 -47 -237 29 -18 44
-21 96 -16 34 4 73 9 87 12 13 2 42 7 65 10 54 8 90 14 155 25 30 5 73 12 95
15 22 3 51 8 65 10 14 3 39 7 55 9 17 3 116 19 221 36 105 16 194 30 198 30 4
0 -22 -55 -57 -122 -81 -154 -155 -296 -242 -463 -37 -71 -89 -170 -115 -220
-26 -49 -82 -157 -125 -240 -43 -82 -94 -181 -115 -220 -20 -38 -70 -133 -110
-210 -40 -77 -96 -185 -125 -240 -29 -55 -85 -163 -125 -240 -40 -77 -84 -160
-97 -184 -36 -62 -29 -133 16 -173 44 -40 73 -43 186 -25 55 9 156 26 225 37
160 25 513 82 750 121 101 17 196 37 211 46 77 46 79 168 2 218 -36 24 -94 23
-253 -3 -69 -12 -145 -24 -170 -27 -25 -3 -52 -8 -60 -10 -8 -2 -31 -6 -50 -9
-19 -3 -118 -19 -220 -35 -102 -16 -205 -33 -230 -36 -24 -4 -48 -9 -52 -11
-19 -12 -17 -8 172 351 75 143 162 310 230 440 70 135 158 302 235 450 50 94
92 176 236 453 96 183 179 341 215 409 18 33 36 77 39 95 9 47 -16 103 -57
128 -42 26 -83 24 -298 -12z"/>
<path d="M8510 14157 c-64 -23 -100 -113 -69 -179 17 -39 68 -66 139 -73 36
-4 72 -8 80 -10 8 -2 51 -6 95 -10 44 -3 94 -8 110 -10 17 -3 57 -7 90 -10 33
-2 78 -7 100 -10 86 -10 136 -16 197 -21 34 -2 74 -7 88 -9 14 -2 56 -7 93
-11 37 -3 67 -10 65 -14 -2 -5 -51 -59 -109 -122 -114 -121 -119 -127 -243
-262 -44 -49 -94 -103 -111 -121 -16 -17 -68 -73 -115 -124 -47 -52 -98 -108
-115 -126 -16 -17 -70 -76 -120 -130 -49 -54 -103 -113 -120 -130 -16 -18 -68
-75 -115 -126 -47 -51 -90 -97 -95 -103 -6 -6 -64 -69 -130 -141 -66 -71 -145
-157 -175 -190 -31 -33 -81 -87 -111 -119 -30 -33 -66 -73 -81 -89 -32 -35
-46 -103 -28 -138 35 -67 69 -83 200 -94 70 -5 97 -8 203 -20 23 -2 134 -14
247 -25 230 -23 282 -29 325 -35 17 -2 66 -7 110 -11 44 -3 89 -8 100 -10 11
-2 65 -7 121 -10 81 -5 107 -3 131 9 91 48 91 180 0 226 -41 20 -106 29 -602
77 -27 3 -63 7 -80 9 -16 2 -82 9 -145 15 -63 6 -124 13 -135 15 -11 2 -33 4
-49 4 l-28 1 38 43 c33 37 179 196 259 282 17 18 66 72 110 120 44 48 96 105
115 125 19 21 73 79 120 130 47 51 90 98 95 104 6 6 69 74 140 151 70 77 174
190 230 250 56 61 124 134 151 164 86 94 95 104 203 221 188 203 198 215 210
238 16 30 7 96 -19 131 -23 34 -60 48 -145 56 -33 3 -76 8 -95 10 -19 2 -57 6
-85 9 -27 3 -77 8 -110 12 -71 7 -88 9 -180 18 -71 7 -131 14 -195 21 -19 3
-62 7 -95 10 -33 4 -73 8 -90 10 -16 2 -61 6 -100 10 -38 3 -83 8 -100 10
-100 13 -143 13 -175 2z"/>
<path d="M4510 13543 c-96 -15 -219 -82 -299 -162 -130 -130 -225 -336 -266
-576 -18 -103 -25 -402 -12 -495 3 -25 9 -70 13 -100 4 -30 21 -114 39 -185
146 -581 517 -977 891 -951 145 10 245 58 359 171 51 52 96 108 123 158 46 79
115 264 126 331 4 22 8 48 11 60 31 136 35 427 9 581 -2 14 -9 53 -14 88 -17
97 -58 243 -97 347 -188 498 -538 788 -883 733z m184 -273 c310 -106 571 -646
567 -1171 -1 -213 -33 -364 -106 -515 -111 -227 -271 -303 -453 -213 -72 35
-199 152 -248 229 -16 25 -31 47 -34 50 -43 42 -178 377 -194 480 -3 19 -10
60 -16 90 -34 172 -34 404 0 579 44 232 161 419 293 470 67 26 120 26 191 1z"/>
<path d="M11218 13195 c-2 -2 -32 -6 -68 -9 -226 -23 -511 -151 -765 -345 -69
-52 -285 -264 -337 -331 -142 -181 -255 -405 -287 -570 -6 -30 -14 -66 -16
-80 -12 -54 -6 -208 9 -270 52 -208 197 -351 411 -405 94 -24 271 -24 385 0
304 63 614 239 870 495 299 298 462 622 464 925 1 190 -42 304 -159 420 -110
110 -238 162 -420 169 -46 2 -86 2 -87 1z m156 -269 c268 -43 330 -332 145
-685 -69 -133 -148 -239 -269 -361 -233 -237 -508 -395 -771 -443 -424 -78
-600 206 -396 637 109 229 264 408 532 614 39 30 174 108 245 141 96 45 240
89 315 97 28 3 51 7 53 9 4 4 102 -2 146 -9z"/>
<path d="M2214 12519 c-204 -34 -397 -138 -551 -296 -256 -262 -378 -645 -339
-1063 5 -47 10 -88 12 -91 2 -3 6 -21 9 -40 21 -119 73 -268 106 -300 61 -60
167 -41 204 37 21 44 19 69 -10 151 -199 571 60 1202 545 1328 255 66 533 -11
724 -201 152 -151 279 -394 315 -601 6 -35 13 -75 16 -90 12 -67 6 -242 -11
-313 -42 -185 -170 -369 -318 -455 l-49 -29 -23 30 c-13 16 -58 79 -99 139
-41 61 -100 146 -131 190 -31 44 -139 200 -240 346 -101 146 -192 273 -202
281 -94 82 -242 -16 -205 -136 5 -17 66 -113 134 -211 161 -232 209 -301 405
-585 89 -129 177 -255 194 -280 35 -50 319 -460 534 -770 88 -128 148 -206
167 -215 109 -57 229 53 180 165 -5 14 -136 205 -289 425 l-278 400 56 37 c95
63 221 187 280 276 l15 23 60 -21 c33 -11 69 -24 80 -29 11 -5 79 -30 150 -54
72 -25 258 -92 415 -148 297 -107 336 -115 385 -83 78 51 74 181 -7 222 -24
12 -76 31 -528 192 -157 55 -294 105 -305 110 -11 4 -48 18 -82 30 -60 21 -61
22 -53 51 5 16 7 29 5 29 -3 0 -1 10 4 23 22 57 29 236 16 372 -8 86 -38 225
-66 308 -51 152 -173 370 -260 467 -17 19 -41 46 -53 60 -12 14 -44 45 -72 70
-137 122 -255 184 -444 230 -95 24 -309 34 -396 19z"/>
<path d="M12840 12026 c-3 -2 -21 -7 -40 -10 -161 -25 -333 -149 -423 -304
-50 -87 -65 -122 -94 -228 -26 -92 -28 -112 -27 -289 0 -195 0 -196 60 -470
112 -511 -105 -975 -504 -1081 -68 -18 -207 -17 -269 2 -158 48 -324 213 -373
371 -55 178 -3 367 140 514 74 75 148 117 259 144 93 22 124 55 124 130 0 47
-6 61 -37 90 -44 41 -77 47 -158 30 -394 -82 -673 -502 -599 -901 42 -229 238
-480 454 -583 117 -56 195 -71 341 -67 72 2 140 6 151 9 11 3 40 10 65 17 126
34 278 127 387 238 230 234 335 573 301 967 -4 39 -23 151 -44 250 -35 167
-38 192 -38 345 0 152 2 171 27 246 65 195 196 314 354 320 232 9 386 -160
351 -384 -21 -133 -106 -240 -220 -277 -63 -21 -74 -29 -95 -69 -35 -66 -6
-147 61 -176 37 -17 48 -18 96 -6 191 44 340 201 400 418 93 341 -85 652 -423
737 -64 17 -216 28 -227 17z"/>
<path d="M7290 9604 c-201 -53 -364 -221 -400 -415 -14 -73 -19 -1351 -6
-1454 18 -135 88 -259 196 -346 123 -100 282 -138 443 -109 31 6 69 17 84 25
16 8 32 15 36 15 4 0 31 15 60 33 106 68 180 166 223 294 l26 78 0 716 c0 394
-3 725 -6 737 -4 11 -9 29 -11 40 -6 34 -48 125 -76 167 -63 93 -181 179 -288
211 -74 22 -211 26 -281 8z m248 -278 c27 -14 66 -44 85 -67 69 -80 67 -58 67
-809 0 -781 3 -748 -84 -836 -55 -54 -122 -84 -191 -84 -96 0 -202 68 -246
157 l-24 48 0 710 0 710 24 45 c40 77 101 127 181 150 48 14 136 3 188 -24z"/>
<path d="M13829 9486 c-26 -18 -39 -36 -47 -66 -11 -45 -10 -51 25 -165 14
-44 26 -87 28 -95 2 -8 22 -85 43 -170 53 -207 112 -499 137 -680 3 -25 8 -56
10 -70 7 -47 23 -189 30 -275 3 -33 7 -78 9 -100 23 -240 23 -790 1 -1020 -14
-146 -17 -173 -21 -210 -4 -46 -13 -123 -20 -180 -9 -72 -55 -349 -64 -385 -5
-19 -11 -53 -15 -75 -3 -22 -12 -64 -20 -95 -8 -30 -16 -66 -19 -80 -6 -37
-55 -228 -71 -280 -8 -25 -30 -97 -49 -160 -259 -864 -734 -1712 -1360 -2430
-117 -134 -457 -478 -566 -571 -41 -35 -79 -69 -85 -75 -5 -6 -48 -42 -95 -80
-47 -38 -87 -71 -90 -74 -9 -11 -212 -165 -290 -221 -102 -72 -352 -238 -424
-280 -32 -19 -72 -43 -90 -53 -142 -87 -573 -307 -676 -346 -19 -7 -40 -17
-45 -21 -21 -15 -353 -143 -510 -196 -309 -104 -645 -192 -915 -239 -14 -3
-60 -11 -103 -19 -43 -8 -104 -18 -135 -21 -32 -3 -59 -7 -62 -9 -3 -2 -34 -6
-70 -10 -36 -3 -72 -8 -80 -10 -8 -2 -53 -7 -100 -10 -46 -4 -96 -9 -110 -11
-194 -25 -907 -25 -1134 1 -17 2 -62 6 -101 10 -38 3 -83 8 -100 10 -16 3 -52
7 -80 10 -51 6 -101 13 -144 20 -13 2 -45 7 -70 11 -25 4 -55 8 -66 11 -77 15
-116 22 -155 28 -24 4 -48 8 -51 11 -4 2 -24 6 -45 10 -144 22 -583 144 -829
231 -568 200 -1161 505 -1610 827 -27 19 -58 41 -69 48 -36 25 -241 181 -291
222 -276 226 -617 553 -822 786 -261 298 -455 562 -698 950 -32 50 -87 146
-125 215 -18 33 -41 74 -51 92 -28 50 -144 281 -177 353 -60 131 -75 165 -129
297 -82 203 -220 605 -239 697 -2 10 -8 33 -14 51 -6 18 -12 41 -15 51 -2 10
-19 84 -38 164 -35 145 -41 172 -77 370 -25 136 -49 303 -64 445 -9 81 -25
281 -32 394 -4 78 -4 576 0 641 2 25 7 98 11 163 3 66 8 126 10 135 1 10 6 51
10 92 4 41 8 82 10 90 2 8 6 44 10 80 4 36 8 72 10 80 3 17 14 90 21 135 2 17
6 41 9 55 3 14 7 39 10 55 3 17 7 41 10 55 10 46 17 85 21 105 16 97 135 558
153 595 4 8 6 30 4 48 -9 95 -97 146 -188 108 -38 -16 -51 -37 -77 -116 -50
-150 -164 -639 -193 -820 -3 -19 -7 -46 -10 -60 -2 -14 -7 -45 -10 -70 -4 -25
-8 -56 -10 -70 -9 -63 -15 -109 -21 -160 -3 -30 -7 -68 -9 -85 -2 -16 -6 -64
-10 -105 -3 -41 -8 -95 -10 -120 -15 -140 -22 -674 -11 -851 5 -76 16 -230 21
-274 1 -16 6 -66 10 -110 4 -44 9 -88 11 -99 2 -10 6 -44 10 -75 3 -31 8 -63
9 -73 2 -9 6 -38 10 -65 3 -26 10 -70 15 -98 5 -27 12 -66 15 -85 44 -267 145
-662 251 -978 128 -380 344 -870 514 -1162 21 -36 47 -81 57 -100 169 -300
437 -683 683 -975 316 -376 701 -748 1055 -1020 50 -39 95 -74 101 -80 6 -5
22 -17 34 -25 12 -8 41 -29 64 -46 65 -49 312 -215 411 -275 506 -312 1035
-554 1585 -725 254 -79 627 -170 834 -204 33 -5 73 -12 89 -15 69 -12 146 -24
187 -29 25 -3 79 -10 120 -15 41 -6 109 -13 150 -16 41 -4 89 -8 105 -10 222
-27 882 -26 1170 0 28 3 79 7 115 10 35 3 71 7 80 9 8 3 45 7 82 11 37 3 80 8
95 11 15 2 42 6 58 9 17 2 48 7 70 10 22 4 78 13 125 22 47 8 96 17 110 19 49
9 216 45 275 60 33 9 69 18 80 20 11 2 70 17 130 34 61 17 121 33 134 36 93
20 619 208 766 274 22 10 78 35 125 55 551 241 1202 654 1671 1059 284 246
593 559 820 831 275 330 563 756 774 1144 68 127 225 444 225 456 0 2 14 35
31 72 91 197 275 713 314 880 3 10 22 86 44 168 63 242 130 588 155 810 4 28
8 66 11 85 29 227 47 528 48 828 0 153 -9 427 -18 512 -2 19 -7 73 -10 119 -4
46 -8 91 -10 100 -1 9 -6 50 -11 91 -4 41 -8 77 -9 80 -1 3 -5 34 -9 70 -5 36
-10 74 -12 85 -11 52 -16 82 -19 100 -36 243 -165 773 -222 917 -30 75 -125
101 -194 54z"/>
<path d="M2119 8520 c-68 -19 -101 -65 -113 -160 -3 -25 -8 -54 -10 -65 -4
-23 -16 -98 -21 -135 -2 -14 -6 -43 -9 -65 -3 -22 -8 -65 -11 -95 -3 -30 -8
-71 -10 -90 -22 -193 -33 -639 -20 -815 2 -27 6 -99 10 -160 3 -60 8 -117 10
-125 2 -8 6 -44 10 -80 3 -36 7 -75 9 -86 2 -11 7 -47 11 -79 14 -119 85 -473
120 -600 9 -33 18 -67 20 -76 21 -101 128 -418 206 -611 151 -371 394 -833
460 -872 63 -37 157 -7 185 61 21 48 12 90 -35 166 -117 192 -287 533 -371
747 -77 195 -171 481 -210 640 -55 227 -78 333 -96 450 -2 19 -9 58 -14 85 -5
28 -11 71 -15 98 -3 26 -7 68 -10 95 -3 26 -8 61 -10 77 -4 32 -15 177 -20
278 -5 79 -5 435 -1 507 12 188 17 268 21 290 2 14 7 54 10 90 4 36 8 72 10
80 2 8 7 35 9 60 3 25 14 91 24 148 21 115 20 151 -4 188 -27 41 -90 66 -135
54z"/>
<path d="M12715 8522 c-43 -5 -93 -47 -103 -86 -9 -30 -4 -80 22 -211 4 -16 9
-46 11 -65 3 -19 7 -44 10 -55 2 -11 7 -42 10 -70 4 -27 8 -60 10 -73 2 -13 7
-53 10 -90 4 -37 8 -78 11 -92 24 -145 24 -876 -1 -1009 -1 -9 -6 -47 -9 -86
-4 -38 -9 -81 -11 -95 -3 -14 -7 -45 -10 -70 -31 -266 -135 -692 -248 -1015
-99 -285 -249 -613 -400 -877 -36 -62 -67 -127 -70 -144 -11 -70 52 -144 123
-144 59 0 96 27 141 103 229 385 444 893 564 1332 37 134 89 353 99 415 3 19
8 46 11 60 11 55 34 199 41 255 3 33 8 67 9 75 5 25 16 120 20 175 2 28 8 88
12 135 14 176 7 766 -11 905 -2 17 -7 61 -11 98 -3 37 -8 76 -10 85 -1 9 -6
42 -9 73 -6 51 -27 178 -56 335 -6 33 -21 73 -33 87 -27 32 -81 54 -122 49z"/>
<path d="M4755 7700 c-88 -19 -113 -69 -109 -213 3 -107 12 -248 19 -282 2
-11 7 -42 10 -69 3 -27 8 -52 9 -55 2 -3 7 -27 10 -53 4 -26 9 -53 11 -60 2
-7 7 -24 9 -38 3 -14 9 -40 15 -57 5 -18 8 -33 5 -33 -3 0 0 -8 5 -18 6 -11
12 -30 14 -43 9 -44 78 -241 117 -330 155 -350 355 -638 627 -899 125 -120
130 -124 238 -206 263 -199 530 -338 841 -438 45 -15 90 -29 100 -31 11 -2 44
-11 74 -19 148 -41 448 -79 640 -80 88 0 306 11 350 18 14 2 47 7 73 11 27 4
59 8 70 11 313 59 528 130 782 258 647 327 1138 892 1374 1581 35 102 80 267
92 338 4 26 10 56 13 65 3 9 8 41 11 71 4 30 8 62 10 71 16 84 25 372 13 417
-16 59 -107 102 -164 78 -16 -7 -74 -56 -129 -110 -241 -237 -403 -316 -715
-350 -312 -34 -547 -118 -800 -284 -225 -148 -392 -305 -583 -551 -113 -146
-260 -416 -338 -623 l-33 -87 -51 127 c-191 476 -500 866 -896 1131 -226 151
-485 249 -734 277 -27 3 -59 8 -70 10 -11 2 -47 7 -80 10 -33 4 -78 11 -100
17 -22 6 -50 12 -63 14 -12 3 -46 14 -75 25 -132 52 -262 145 -417 298 -93 93
-126 112 -175 101z m401 -599 c96 -47 175 -74 274 -94 71 -15 102 -19 218 -32
26 -3 58 -8 72 -10 14 -3 41 -7 60 -10 282 -46 588 -216 839 -465 274 -273
477 -624 586 -1010 33 -120 63 -273 70 -364 l5 -77 -67 6 c-425 36 -822 172
-1168 400 -102 67 -241 172 -291 220 -12 11 -45 43 -75 71 -397 377 -673 908
-745 1434 -3 25 -8 53 -9 62 -3 12 20 1 74 -37 43 -30 114 -72 157 -94z m4739
52 c-142 -876 -734 -1613 -1560 -1943 -116 -46 -326 -107 -430 -125 -159 -28
-201 -34 -288 -40 l-69 -5 6 68 c4 37 8 77 10 89 3 11 7 36 10 54 19 116 38
192 78 312 189 576 552 1024 1024 1265 172 88 266 114 520 147 197 26 241 35
349 72 98 34 197 85 285 147 41 30 76 53 77 52 2 -1 -4 -43 -12 -93z"/>
<path d="M10589 3393 c-184 -37 -340 -186 -378 -360 -24 -113 7 -261 76 -355
210 -290 628 -248 790 79 37 75 38 80 38 182 0 87 -5 116 -23 163 -33 82 -80
146 -147 201 -101 81 -235 115 -356 90z m182 -175 c212 -99 258 -366 87 -512
-199 -170 -515 5 -496 274 15 200 226 323 409 238z"/>
<path d="M4028 3031 c-131 -197 -238 -361 -238 -364 0 -8 120 -90 125 -85 1 1
76 113 165 248 90 135 166 249 170 253 4 4 7 -100 7 -233 1 -133 2 -242 4
-244 2 -2 103 38 224 89 121 51 221 91 223 90 2 -2 -73 -118 -167 -258 l-170
-255 65 -43 c37 -24 68 -38 73 -33 7 8 455 680 474 710 4 7 -21 30 -63 57
l-69 46 -58 -25 c-32 -15 -133 -59 -225 -99 l-167 -73 5 246 4 247 -65 43
c-36 23 -68 42 -72 42 -5 -1 -115 -162 -245 -359z"/>
<path d="M9685 2856 c-128 -32 -253 -122 -308 -224 -130 -239 -14 -556 240
-652 211 -80 475 28 572 235 18 37 31 69 29 70 -2 2 -31 14 -65 28 l-62 25
-31 -54 c-42 -74 -85 -117 -150 -150 -112 -57 -247 -30 -334 67 -62 68 -90
140 -90 229 0 120 51 203 159 258 40 20 64 25 120 25 39 1 88 -3 110 -7 l40
-8 19 67 c11 38 15 70 10 75 -29 27 -177 37 -259 16z"/>
<path d="M5390 2689 c-190 -23 -344 -169 -385 -364 -56 -274 145 -526 430
-540 95 -5 149 6 231 46 141 68 241 226 248 392 7 154 -75 310 -206 393 -90
57 -213 85 -318 73z m187 -169 c194 -85 234 -347 77 -504 -134 -134 -360 -105
-453 57 -54 96 -57 198 -6 299 76 153 233 214 382 148z"/>
<path d="M8749 2504 c-239 -45 -387 -209 -391 -436 -3 -209 129 -395 324 -453
61 -18 203 -14 274 9 69 22 163 84 206 137 35 44 63 89 56 93 -42 29 -107 66
-114 65 -5 0 -27 -24 -49 -52 -29 -37 -60 -62 -105 -85 -61 -31 -70 -33 -145
-29 -91 5 -126 20 -186 79 -66 65 -93 136 -94 238 0 70 4 93 24 130 30 58 76
107 125 132 47 24 66 28 136 29 66 1 85 -3 141 -30 24 -12 46 -18 50 -14 4 5
21 35 38 68 l31 60 -57 27 c-53 24 -103 37 -174 42 -14 1 -54 -3 -90 -10z"/>
<path d="M6259 2421 c0 -9 -2 -27 -5 -41 -20 -116 -56 -337 -60 -368 -2 -20
-8 -59 -14 -87 -9 -49 -14 -81 -26 -160 -3 -22 -12 -74 -19 -115 -7 -41 -11
-77 -9 -79 7 -8 145 -28 148 -22 2 3 7 26 11 51 8 49 9 54 21 120 4 25 9 48
10 53 1 4 2 21 3 38 l1 31 48 -6 c26 -4 69 -9 95 -13 l48 -6 80 -166 c45 -91
85 -169 91 -172 10 -6 170 -31 174 -26 1 1 -38 82 -86 179 -48 97 -85 179 -82
182 3 3 15 6 27 6 33 0 116 47 148 83 93 107 86 297 -15 382 -69 59 -156 84
-413 121 -22 4 -70 12 -107 19 -61 11 -68 11 -69 -4z m221 -166 c25 -4 54 -9
65 -11 10 -2 37 -6 60 -9 130 -19 194 -107 151 -209 -28 -67 -121 -98 -224
-76 -20 5 -57 11 -82 15 -100 13 -102 14 -97 48 15 103 40 243 43 249 3 4 12
5 22 4 9 -2 37 -7 62 -11z"/>
<path d="M7595 2332 c-154 -14 -299 -111 -364 -245 -150 -305 59 -656 391
-658 102 -1 141 8 223 46 160 76 249 219 248 400 0 91 -3 109 -24 174 -25 77
-110 176 -192 224 -72 43 -192 68 -282 59z m131 -157 c27 -8 69 -31 93 -51 78
-67 113 -145 113 -248 0 -208 -187 -350 -381 -289 -82 25 -162 107 -189 193
-31 103 -18 203 39 287 70 102 200 145 325 108z"/>
</g>
</svg>
